<svg xmlns="http://www.w3.org/2000/svg" viewBox="0 0 64 64">
  <defs>
    <linearGradient id="hg" x1="0%" y1="0%" x2="100%" y2="100%">
      <stop offset="0%" style="stop-color:#00dfa0"/>
      <stop offset="100%" style="stop-color:#00b4d8"/>
    </linearGradient>
  </defs>

  <!-- Heart outline -->
  <path d="M32 52
    C32 52 10 38 10 24
    C10 17 15.5 12 22 12
    C26 12 29.5 14 32 17
    C34.5 14 38 12 42 12
    C48.5 12 54 17 54 24
    C54 38 32 52 32 52Z"
    fill="none" stroke="url(#hg)" stroke-width="3.5" stroke-linejoin="round"/>

  <!-- ECG line through the heart (horizontal mid) -->
  <polyline
    points="8,32 17,32 20,24 23,40 26,28 29,36 32,18 35,36 38,28 41,40 44,24 47,32 56,32"
    fill="none" stroke="url(#hg)" stroke-width="2.2" stroke-linecap="round" stroke-linejoin="round"/>
</svg>
